G75*
%MOIN*%
%OFA0B0*%
%FSLAX24Y24*%
%IPPOS*%
%LPD*%
%AMOC8*
5,1,8,0,0,1.08239X$1,22.5*
%
%ADD10R,0.0433X0.0709*%
%ADD11R,0.0354X0.0276*%
D10*
X003750Y000884D03*
X005010Y000884D03*
X005010Y002616D03*
X003750Y002616D03*
X003750Y004159D03*
X005010Y004159D03*
X005010Y005892D03*
X003750Y005892D03*
X003750Y007435D03*
X005010Y007435D03*
X005010Y009167D03*
X003750Y009167D03*
X003750Y010711D03*
X005010Y010711D03*
X005010Y012443D03*
X003750Y012443D03*
X003750Y013986D03*
X005010Y013986D03*
X005010Y015719D03*
X003750Y015719D03*
X003750Y017262D03*
X005010Y017262D03*
X005010Y018994D03*
X003750Y018994D03*
X003750Y020537D03*
X005010Y020537D03*
X005010Y022270D03*
X003750Y022270D03*
X003750Y023813D03*
X005010Y023813D03*
X005010Y025545D03*
X003750Y025545D03*
X003750Y027089D03*
X005010Y027089D03*
X005010Y028821D03*
X003750Y028821D03*
X003750Y030364D03*
X005010Y030364D03*
X005010Y032096D03*
X003750Y032096D03*
X003750Y033640D03*
X005010Y033640D03*
X005010Y035372D03*
X003750Y035372D03*
X003750Y036915D03*
X005010Y036915D03*
X005010Y038648D03*
X003750Y038648D03*
X009025Y038648D03*
X010285Y038648D03*
X010285Y036915D03*
X009025Y036915D03*
X009025Y035372D03*
X010285Y035372D03*
X010285Y033640D03*
X009025Y033640D03*
X009025Y032096D03*
X010285Y032096D03*
X010285Y030364D03*
X009025Y030364D03*
X009025Y028821D03*
X010285Y028821D03*
X010285Y027089D03*
X009025Y027089D03*
X009025Y025545D03*
X010285Y025545D03*
X010285Y023813D03*
X009025Y023813D03*
X009025Y022270D03*
X010285Y022270D03*
X010285Y020537D03*
X009025Y020537D03*
X009025Y018994D03*
X010285Y018994D03*
X010285Y017262D03*
X009025Y017262D03*
X009025Y015719D03*
X010285Y015719D03*
X010285Y013986D03*
X009025Y013986D03*
X009025Y012443D03*
X010285Y012443D03*
X010285Y010711D03*
X009025Y010711D03*
X009025Y009167D03*
X010285Y009167D03*
X010285Y007435D03*
X009025Y007435D03*
X009025Y005892D03*
X010285Y005892D03*
X010285Y004159D03*
X009025Y004159D03*
X009025Y002616D03*
X010285Y002616D03*
X010285Y000884D03*
X009025Y000884D03*
X014301Y000884D03*
X015561Y000884D03*
X015561Y002616D03*
X014301Y002616D03*
X014301Y004159D03*
X015561Y004159D03*
X015561Y005892D03*
X014301Y005892D03*
X014301Y007435D03*
X015561Y007435D03*
X015561Y009167D03*
X014301Y009167D03*
X014301Y010711D03*
X015561Y010711D03*
X015561Y012443D03*
X014301Y012443D03*
X014301Y013986D03*
X015561Y013986D03*
X015561Y015719D03*
X014301Y015719D03*
X014301Y017262D03*
X015561Y017262D03*
X015561Y018994D03*
X014301Y018994D03*
X014301Y020537D03*
X015561Y020537D03*
X015561Y022270D03*
X014301Y022270D03*
X014301Y023813D03*
X015561Y023813D03*
X015561Y025545D03*
X014301Y025545D03*
X014301Y027089D03*
X015561Y027089D03*
X015561Y028821D03*
X014301Y028821D03*
X014301Y030364D03*
X015561Y030364D03*
X015561Y032096D03*
X014301Y032096D03*
X014301Y033640D03*
X015561Y033640D03*
X015561Y035372D03*
X014301Y035372D03*
X014301Y036915D03*
X015561Y036915D03*
X015561Y038648D03*
X014301Y038648D03*
X019577Y038648D03*
X020836Y038648D03*
X020836Y036915D03*
X019577Y036915D03*
X019577Y035372D03*
X020836Y035372D03*
X020836Y033640D03*
X019577Y033640D03*
X019577Y032096D03*
X020836Y032096D03*
X020836Y030364D03*
X019577Y030364D03*
X019577Y028821D03*
X020836Y028821D03*
X020836Y027089D03*
X019577Y027089D03*
X019577Y025545D03*
X020836Y025545D03*
X020836Y023813D03*
X019577Y023813D03*
X019577Y022270D03*
X020836Y022270D03*
X020836Y020537D03*
X019577Y020537D03*
X019577Y018994D03*
X020836Y018994D03*
X020836Y017262D03*
X019577Y017262D03*
X019577Y015719D03*
X020836Y015719D03*
X020836Y013986D03*
X019577Y013986D03*
X019577Y012443D03*
X020836Y012443D03*
X020836Y010711D03*
X019577Y010711D03*
X019577Y009167D03*
X020836Y009167D03*
X020836Y007435D03*
X019577Y007435D03*
X019577Y005892D03*
X020836Y005892D03*
X020836Y004159D03*
X019577Y004159D03*
X019577Y002616D03*
X020836Y002616D03*
X020836Y000884D03*
X019577Y000884D03*
X024852Y000884D03*
X026112Y000884D03*
X026112Y002616D03*
X024852Y002616D03*
X024852Y004159D03*
X026112Y004159D03*
X026112Y005892D03*
X024852Y005892D03*
X024852Y007435D03*
X026112Y007435D03*
X026112Y009167D03*
X024852Y009167D03*
X024852Y010711D03*
X026112Y010711D03*
X026112Y012443D03*
X024852Y012443D03*
X024852Y013986D03*
X026112Y013986D03*
X026112Y015719D03*
X024852Y015719D03*
X024852Y017262D03*
X026112Y017262D03*
X026112Y018994D03*
X024852Y018994D03*
X024852Y020537D03*
X026112Y020537D03*
X026112Y022270D03*
X024852Y022270D03*
X024852Y023813D03*
X026112Y023813D03*
X026112Y025545D03*
X024852Y025545D03*
X024852Y027089D03*
X026112Y027089D03*
X026112Y028821D03*
X024852Y028821D03*
X024852Y030364D03*
X026112Y030364D03*
X026112Y032096D03*
X024852Y032096D03*
X024852Y033640D03*
X026112Y033640D03*
X026112Y035372D03*
X024852Y035372D03*
X024852Y036915D03*
X026112Y036915D03*
X026112Y038648D03*
X024852Y038648D03*
X030128Y038648D03*
X031388Y038648D03*
X031388Y036915D03*
X030128Y036915D03*
X030128Y035372D03*
X031388Y035372D03*
X031388Y033640D03*
X030128Y033640D03*
X030128Y032096D03*
X031388Y032096D03*
X031388Y030364D03*
X030128Y030364D03*
X030128Y028821D03*
X031388Y028821D03*
X031388Y027089D03*
X030128Y027089D03*
X030128Y025545D03*
X031388Y025545D03*
X031388Y023813D03*
X030128Y023813D03*
X030128Y022270D03*
X031388Y022270D03*
X031388Y020537D03*
X030128Y020537D03*
X030128Y018994D03*
X031388Y018994D03*
X031388Y017262D03*
X030128Y017262D03*
X030128Y015719D03*
X031388Y015719D03*
X031388Y013986D03*
X030128Y013986D03*
X030128Y012443D03*
X031388Y012443D03*
X031388Y010711D03*
X030128Y010711D03*
X030128Y009167D03*
X031388Y009167D03*
X031388Y007435D03*
X030128Y007435D03*
X030128Y005892D03*
X031388Y005892D03*
X031388Y004159D03*
X030128Y004159D03*
X030128Y002616D03*
X031388Y002616D03*
X031388Y000884D03*
X030128Y000884D03*
D11*
X003055Y001794D03*
X003055Y002306D03*
X003055Y005070D03*
X003055Y005581D03*
X003055Y008345D03*
X003055Y008857D03*
X003055Y011621D03*
X003055Y012133D03*
X003055Y014896D03*
X003055Y015408D03*
X003055Y018172D03*
X003055Y018684D03*
X003055Y021448D03*
X003055Y021959D03*
X003055Y024723D03*
X003055Y025235D03*
X003055Y027999D03*
X003055Y028511D03*
X003055Y031274D03*
X003055Y031786D03*
X003055Y034550D03*
X003055Y035062D03*
X003055Y037826D03*
X003055Y038337D03*
X008330Y038337D03*
X008330Y037826D03*
X008330Y035062D03*
X008330Y034550D03*
X008330Y031786D03*
X008330Y031274D03*
X008330Y028511D03*
X008330Y027999D03*
X008330Y025235D03*
X008330Y024723D03*
X008330Y021959D03*
X008330Y021448D03*
X008330Y018684D03*
X008330Y018172D03*
X008330Y015408D03*
X008330Y014896D03*
X008330Y012133D03*
X008330Y011621D03*
X008330Y008857D03*
X008330Y008345D03*
X008330Y005581D03*
X008330Y005070D03*
X008330Y002306D03*
X008330Y001794D03*
X013606Y001794D03*
X013606Y002306D03*
X013606Y005070D03*
X013606Y005581D03*
X013606Y008345D03*
X013606Y008857D03*
X013606Y011621D03*
X013606Y012133D03*
X013606Y014896D03*
X013606Y015408D03*
X013606Y018172D03*
X013606Y018684D03*
X013606Y021448D03*
X013606Y021959D03*
X013606Y024723D03*
X013606Y025235D03*
X013606Y027999D03*
X013606Y028511D03*
X013606Y031274D03*
X013606Y031786D03*
X013606Y034550D03*
X013606Y035062D03*
X013606Y037826D03*
X013606Y038337D03*
X018882Y038337D03*
X018882Y037826D03*
X018882Y035062D03*
X018882Y034550D03*
X018882Y031786D03*
X018882Y031274D03*
X018882Y028511D03*
X018882Y027999D03*
X018882Y025235D03*
X018882Y024723D03*
X018882Y021959D03*
X018882Y021448D03*
X018882Y018684D03*
X018882Y018172D03*
X018882Y015408D03*
X018882Y014896D03*
X018882Y012133D03*
X018882Y011621D03*
X018882Y008857D03*
X018882Y008345D03*
X018882Y005581D03*
X018882Y005070D03*
X018882Y002306D03*
X018882Y001794D03*
X024157Y001794D03*
X024157Y002306D03*
X024157Y005070D03*
X024157Y005581D03*
X024157Y008345D03*
X024157Y008857D03*
X024157Y011621D03*
X024157Y012133D03*
X024157Y014896D03*
X024157Y015408D03*
X024157Y018172D03*
X024157Y018684D03*
X024157Y021448D03*
X024157Y021959D03*
X024157Y024723D03*
X024157Y025235D03*
X024157Y027999D03*
X024157Y028511D03*
X024157Y031274D03*
X024157Y031786D03*
X024157Y034550D03*
X024157Y035062D03*
X024157Y037826D03*
X024157Y038337D03*
X029433Y038337D03*
X029433Y037826D03*
X029433Y035062D03*
X029433Y034550D03*
X029433Y031786D03*
X029433Y031274D03*
X029433Y028511D03*
X029433Y027999D03*
X029433Y025235D03*
X029433Y024723D03*
X029433Y021959D03*
X029433Y021448D03*
X029433Y018684D03*
X029433Y018172D03*
X029433Y015408D03*
X029433Y014896D03*
X029433Y012133D03*
X029433Y011621D03*
X029433Y008857D03*
X029433Y008345D03*
X029433Y005581D03*
X029433Y005070D03*
X029433Y002306D03*
X029433Y001794D03*
M02*
