G75*
%MOIN*%
%OFA0B0*%
%FSLAX24Y24*%
%IPPOS*%
%LPD*%
%AMOC8*
5,1,8,0,0,1.08239X$1,22.5*
%
%ADD10C,0.0010*%
%ADD11R,0.0433X0.0709*%
%ADD12R,0.0354X0.0276*%
%ADD13R,0.0740X0.0740*%
%ADD14C,0.0740*%
%ADD15C,0.0320*%
%ADD16C,0.0100*%
%ADD17C,0.0160*%
D10*
X000150Y000250D02*
X000150Y003250D01*
X005150Y003250D01*
X005150Y000250D01*
X000150Y000250D01*
D11*
X002220Y000884D03*
X003480Y000884D03*
X003480Y002616D03*
X002220Y002616D03*
D12*
X001525Y002306D03*
X001525Y001794D03*
D13*
X000650Y000750D03*
D14*
X000650Y001750D03*
X000650Y002750D03*
X004650Y002750D03*
X004650Y001750D03*
X004650Y000750D03*
D15*
X003480Y002616D02*
X003614Y002750D01*
X004650Y002750D01*
X001525Y002306D02*
X000954Y002750D01*
X000650Y002750D01*
D16*
X001081Y003016D02*
X001074Y003033D01*
X000992Y003115D01*
X004308Y003115D01*
X004233Y003040D01*
X003811Y003040D01*
X003750Y003100D01*
X003210Y003100D01*
X003133Y003024D01*
X003133Y002208D01*
X003210Y002132D01*
X003750Y002132D01*
X003826Y002208D01*
X003826Y002460D01*
X004233Y002460D01*
X004367Y002326D01*
X004551Y002250D01*
X004367Y002174D01*
X004226Y002033D01*
X004196Y001960D01*
X003361Y001960D01*
X002567Y002605D01*
X002567Y003024D01*
X002490Y003100D01*
X001950Y003100D01*
X001874Y003024D01*
X001874Y002208D01*
X001950Y002132D01*
X002483Y002132D01*
X003145Y001594D01*
X003199Y001540D01*
X003212Y001540D01*
X003221Y001532D01*
X003297Y001540D01*
X004196Y001540D01*
X004226Y001467D01*
X004367Y001326D01*
X004532Y001258D01*
X004528Y001257D01*
X004450Y001232D01*
X004377Y001195D01*
X004311Y001147D01*
X004253Y001089D01*
X004205Y001023D01*
X004168Y000950D01*
X004143Y000872D01*
X004131Y000800D01*
X004600Y000800D01*
X004600Y000700D01*
X004131Y000700D01*
X004143Y000628D01*
X004168Y000550D01*
X004205Y000477D01*
X004253Y000411D01*
X004280Y000385D01*
X002477Y000385D01*
X002495Y000390D01*
X002529Y000409D01*
X002557Y000437D01*
X002576Y000472D01*
X002587Y000510D01*
X002587Y000834D01*
X002270Y000834D01*
X002270Y000934D01*
X002587Y000934D01*
X002587Y001190D01*
X002877Y001190D01*
X003133Y000933D01*
X003133Y000476D01*
X003210Y000400D01*
X003750Y000400D01*
X003826Y000476D01*
X003826Y001292D01*
X003750Y001368D01*
X003293Y001368D01*
X003051Y001610D01*
X001845Y001610D01*
X001852Y001637D01*
X001852Y001775D01*
X001544Y001775D01*
X001544Y001813D01*
X001852Y001813D01*
X001852Y001952D01*
X001842Y001990D01*
X001822Y002024D01*
X001794Y002052D01*
X001779Y002061D01*
X001832Y002114D01*
X001832Y002498D01*
X001756Y002574D01*
X001653Y002574D01*
X001147Y002968D01*
X001119Y002996D01*
X001102Y003003D01*
X001087Y003014D01*
X001081Y003016D01*
X001095Y003008D02*
X001874Y003008D01*
X001874Y002910D02*
X001222Y002910D01*
X001348Y002811D02*
X001874Y002811D01*
X001874Y002713D02*
X001475Y002713D01*
X001601Y002614D02*
X001874Y002614D01*
X001874Y002516D02*
X001814Y002516D01*
X001832Y002417D02*
X001874Y002417D01*
X001874Y002319D02*
X001832Y002319D01*
X001832Y002220D02*
X001874Y002220D01*
X001832Y002122D02*
X002496Y002122D01*
X002617Y002023D02*
X001823Y002023D01*
X001852Y001925D02*
X002738Y001925D01*
X002860Y001826D02*
X001852Y001826D01*
X001852Y001728D02*
X002981Y001728D01*
X003102Y001629D02*
X001850Y001629D01*
X001506Y001775D02*
X001506Y001813D01*
X001198Y001813D01*
X001198Y001952D01*
X001208Y001990D01*
X001228Y002024D01*
X001256Y002052D01*
X001271Y002061D01*
X001218Y002114D01*
X001218Y002177D01*
X000974Y002367D01*
X000933Y002326D01*
X000749Y002250D01*
X000551Y002250D01*
X000367Y002326D01*
X000285Y002408D01*
X000285Y002092D01*
X000367Y002174D01*
X000551Y002250D01*
X000749Y002250D01*
X000933Y002174D01*
X001074Y002033D01*
X001150Y001849D01*
X001150Y001651D01*
X001133Y001610D01*
X001205Y001610D01*
X001198Y001637D01*
X001198Y001775D01*
X001506Y001775D01*
X001198Y001728D02*
X001150Y001728D01*
X001150Y001826D02*
X001198Y001826D01*
X001198Y001925D02*
X001119Y001925D01*
X001078Y002023D02*
X001227Y002023D01*
X001218Y002122D02*
X000986Y002122D01*
X000822Y002220D02*
X001163Y002220D01*
X001037Y002319D02*
X000915Y002319D01*
X000478Y002220D02*
X000285Y002220D01*
X000285Y002122D02*
X000314Y002122D01*
X000285Y002319D02*
X000385Y002319D01*
X001141Y001629D02*
X001200Y001629D01*
X001153Y001190D02*
X001854Y001190D01*
X001854Y000934D01*
X002170Y000934D01*
X002170Y000834D01*
X001854Y000834D01*
X001854Y000510D01*
X001864Y000472D01*
X001884Y000437D01*
X001911Y000409D01*
X001946Y000390D01*
X001963Y000385D01*
X001170Y000385D01*
X001170Y000700D01*
X000700Y000700D01*
X000700Y000800D01*
X001170Y000800D01*
X001170Y001140D01*
X001160Y001178D01*
X001153Y001190D01*
X001170Y001137D02*
X001854Y001137D01*
X001854Y001038D02*
X001170Y001038D01*
X001170Y000940D02*
X001854Y000940D01*
X001854Y000743D02*
X000700Y000743D01*
X001170Y000841D02*
X002170Y000841D01*
X002270Y000841D02*
X003133Y000841D01*
X003133Y000743D02*
X002587Y000743D01*
X002587Y000644D02*
X003133Y000644D01*
X003133Y000546D02*
X002587Y000546D01*
X002562Y000447D02*
X003162Y000447D01*
X003798Y000447D02*
X004227Y000447D01*
X004171Y000546D02*
X003826Y000546D01*
X003826Y000644D02*
X004140Y000644D01*
X004138Y000841D02*
X003826Y000841D01*
X003826Y000743D02*
X004600Y000743D01*
X004165Y000940D02*
X003826Y000940D01*
X003826Y001038D02*
X004216Y001038D01*
X004301Y001137D02*
X003826Y001137D01*
X003826Y001235D02*
X004460Y001235D01*
X004359Y001334D02*
X003785Y001334D01*
X004200Y001531D02*
X003130Y001531D01*
X003229Y001432D02*
X004261Y001432D01*
X004222Y002023D02*
X003283Y002023D01*
X003162Y002122D02*
X004314Y002122D01*
X004478Y002220D02*
X003826Y002220D01*
X003826Y002319D02*
X004385Y002319D01*
X004276Y002417D02*
X003826Y002417D01*
X003133Y002417D02*
X002798Y002417D01*
X002677Y002516D02*
X003133Y002516D01*
X003133Y002614D02*
X002567Y002614D01*
X002567Y002713D02*
X003133Y002713D01*
X003133Y002811D02*
X002567Y002811D01*
X002567Y002910D02*
X003133Y002910D01*
X003133Y003008D02*
X002567Y003008D01*
X002919Y002319D02*
X003133Y002319D01*
X003133Y002220D02*
X003041Y002220D01*
X004299Y003107D02*
X001001Y003107D01*
X002587Y001137D02*
X002930Y001137D01*
X003029Y001038D02*
X002587Y001038D01*
X002587Y000940D02*
X003127Y000940D01*
X001878Y000447D02*
X001170Y000447D01*
X001170Y000546D02*
X001854Y000546D01*
X001854Y000644D02*
X001170Y000644D01*
X004551Y002250D02*
X004749Y002250D01*
X004933Y002174D01*
X005015Y002092D01*
X005015Y002408D01*
X004933Y002326D01*
X004749Y002250D01*
X004551Y002250D01*
X004822Y002220D02*
X005015Y002220D01*
X005015Y002122D02*
X004986Y002122D01*
X005015Y002319D02*
X004915Y002319D01*
D17*
X004650Y001750D02*
X003286Y001750D01*
X002220Y002616D01*
X001000Y001400D02*
X000650Y001750D01*
X001000Y001400D02*
X002964Y001400D01*
X003480Y000884D01*
M02*
