G75*
%MOIN*%
%OFA0B0*%
%FSLAX24Y24*%
%IPPOS*%
%LPD*%
%AMOC8*
5,1,8,0,0,1.08239X$1,22.5*
%
%ADD10C,0.0030*%
%ADD11C,0.0040*%
%ADD12C,0.0080*%
%ADD13C,0.0010*%
D10*
X001857Y000352D02*
X001894Y000315D01*
X002004Y000315D01*
X002004Y000535D01*
X001894Y000535D01*
X001857Y000498D01*
X001857Y000462D01*
X001894Y000425D01*
X002004Y000425D01*
X002087Y000462D02*
X002087Y000498D01*
X002124Y000535D01*
X002197Y000535D01*
X002234Y000498D01*
X002087Y000462D02*
X002234Y000315D01*
X002087Y000315D01*
X001894Y000425D02*
X001857Y000388D01*
X001857Y000352D01*
X002317Y000315D02*
X002464Y000315D01*
X002391Y000315D02*
X002391Y000535D01*
X002464Y000462D01*
X002548Y000462D02*
X002584Y000425D01*
X002658Y000425D01*
X002694Y000462D01*
X002694Y000498D01*
X002658Y000535D01*
X002584Y000535D01*
X002548Y000498D01*
X002548Y000462D01*
X002584Y000425D02*
X002548Y000388D01*
X002548Y000352D01*
X002584Y000315D01*
X002658Y000315D01*
X002694Y000352D01*
X002694Y000388D01*
X002658Y000425D01*
X002778Y000462D02*
X002778Y000498D01*
X002815Y000535D01*
X002888Y000535D01*
X002925Y000498D01*
X003008Y000498D02*
X003045Y000535D01*
X003118Y000535D01*
X003155Y000498D01*
X003155Y000462D01*
X003118Y000425D01*
X003045Y000425D01*
X003008Y000388D01*
X003008Y000352D01*
X003045Y000315D01*
X003118Y000315D01*
X003155Y000352D01*
X003238Y000315D02*
X003238Y000535D01*
X003385Y000535D02*
X003385Y000315D01*
X003312Y000388D01*
X003238Y000315D01*
X002925Y000315D02*
X002778Y000462D01*
X002778Y000315D02*
X002925Y000315D01*
X002860Y002315D02*
X002714Y002315D01*
X002787Y002315D02*
X002787Y002535D01*
X002860Y002462D01*
X002944Y002462D02*
X003017Y002315D01*
X003091Y002462D01*
X002630Y002352D02*
X002630Y002315D01*
X002594Y002315D01*
X002594Y002352D01*
X002630Y002352D01*
X002515Y002352D02*
X002368Y002498D01*
X002368Y002352D01*
X002405Y002315D01*
X002479Y002315D01*
X002515Y002352D01*
X002515Y002498D01*
X002479Y002535D01*
X002405Y002535D01*
X002368Y002498D01*
D11*
X002097Y002723D02*
X001993Y002620D01*
X001890Y002723D01*
X001890Y002930D01*
X001775Y002879D02*
X001775Y002672D01*
X001723Y002620D01*
X001619Y002620D01*
X001568Y002672D01*
X001452Y002672D02*
X001401Y002620D01*
X001297Y002620D01*
X001245Y002672D01*
X001452Y002672D02*
X001452Y002879D01*
X001401Y002930D01*
X001297Y002930D01*
X001245Y002879D01*
X001568Y002879D02*
X001619Y002930D01*
X001723Y002930D01*
X001775Y002879D01*
X002097Y002930D02*
X002097Y002723D01*
X003195Y002672D02*
X003247Y002620D01*
X003351Y002620D01*
X003402Y002672D01*
X003402Y002879D01*
X003351Y002930D01*
X003247Y002930D01*
X003195Y002879D01*
X003518Y002879D02*
X003569Y002930D01*
X003673Y002930D01*
X003725Y002879D01*
X003725Y002672D01*
X003673Y002620D01*
X003569Y002620D01*
X003518Y002672D01*
X003840Y002723D02*
X003840Y002930D01*
X004047Y002930D02*
X004047Y002723D01*
X003943Y002620D01*
X003840Y002723D01*
X003869Y001880D02*
X004025Y001880D01*
X004025Y001570D01*
X003869Y001570D01*
X003818Y001622D01*
X003818Y001829D01*
X003869Y001880D01*
X003702Y001829D02*
X003702Y001622D01*
X003651Y001570D01*
X003547Y001570D01*
X003495Y001622D01*
X003495Y001829D01*
X003547Y001880D01*
X003651Y001880D01*
X003702Y001829D01*
X003725Y000955D02*
X003518Y000645D01*
X003518Y000955D01*
X003402Y000955D02*
X003247Y000955D01*
X003195Y000904D01*
X003195Y000697D01*
X003247Y000645D01*
X003402Y000645D01*
X003402Y000955D01*
X003725Y000955D02*
X003725Y000645D01*
X003840Y000697D02*
X003840Y000800D01*
X003943Y000800D01*
X003840Y000697D02*
X003892Y000645D01*
X003995Y000645D01*
X004047Y000697D01*
X004047Y000904D01*
X003995Y000955D01*
X003892Y000955D01*
X003840Y000904D01*
X002097Y000904D02*
X002097Y000697D01*
X002045Y000645D01*
X001942Y000645D01*
X001890Y000697D01*
X001890Y000800D01*
X001993Y000800D01*
X001890Y000904D02*
X001942Y000955D01*
X002045Y000955D01*
X002097Y000904D01*
X001775Y000955D02*
X001568Y000645D01*
X001568Y000955D01*
X001452Y000955D02*
X001297Y000955D01*
X001245Y000904D01*
X001245Y000697D01*
X001297Y000645D01*
X001452Y000645D01*
X001452Y000955D01*
X001775Y000955D02*
X001775Y000645D01*
X001667Y001570D02*
X001512Y001570D01*
X001460Y001622D01*
X001460Y001829D01*
X001512Y001880D01*
X001667Y001880D01*
X001667Y001570D01*
X001345Y001570D02*
X001241Y001570D01*
X001293Y001570D02*
X001293Y001880D01*
X001345Y001880D02*
X001241Y001880D01*
D12*
X001150Y000250D02*
X000150Y000250D01*
X000150Y003250D01*
X001150Y003250D01*
X001150Y000250D01*
X004150Y000250D02*
X005150Y000250D01*
X005150Y003250D01*
X004150Y003250D01*
X004150Y000250D01*
D13*
X003125Y001300D02*
X002851Y001300D01*
X002851Y001570D01*
X002901Y001596D01*
X002901Y001878D01*
X002853Y001918D01*
X002853Y001936D01*
X002653Y001936D01*
X002653Y001920D01*
X002827Y001920D01*
X002849Y001920D01*
X002849Y001942D01*
X002827Y001942D01*
X002827Y002034D01*
X002799Y002060D01*
X002673Y002060D01*
X002651Y002038D01*
X002651Y001920D01*
X002621Y001920D01*
X002573Y001880D01*
X002573Y001596D01*
X002623Y001572D01*
X002623Y001298D01*
X002349Y001298D01*
X002349Y002228D01*
X003125Y002228D01*
X003125Y001300D01*
X003125Y001304D02*
X002851Y001304D01*
X002851Y001313D02*
X003125Y001313D01*
X003125Y001321D02*
X002851Y001321D01*
X002851Y001330D02*
X003125Y001330D01*
X003125Y001338D02*
X002851Y001338D01*
X002851Y001347D02*
X003125Y001347D01*
X003125Y001355D02*
X002851Y001355D01*
X002851Y001364D02*
X003125Y001364D01*
X003125Y001372D02*
X002851Y001372D01*
X002851Y001381D02*
X003125Y001381D01*
X003125Y001389D02*
X002851Y001389D01*
X002851Y001398D02*
X003125Y001398D01*
X003125Y001406D02*
X002851Y001406D01*
X002851Y001415D02*
X003125Y001415D01*
X003125Y001423D02*
X002851Y001423D01*
X002851Y001432D02*
X003125Y001432D01*
X003125Y001440D02*
X002851Y001440D01*
X002851Y001449D02*
X003125Y001449D01*
X003125Y001457D02*
X002851Y001457D01*
X002851Y001466D02*
X003125Y001466D01*
X003125Y001474D02*
X002851Y001474D01*
X002851Y001483D02*
X003125Y001483D01*
X003125Y001491D02*
X002851Y001491D01*
X002851Y001500D02*
X003125Y001500D01*
X003125Y001508D02*
X002851Y001508D01*
X002851Y001517D02*
X003125Y001517D01*
X003125Y001525D02*
X002851Y001525D01*
X002851Y001534D02*
X003125Y001534D01*
X003125Y001542D02*
X002851Y001542D01*
X002851Y001551D02*
X003125Y001551D01*
X003125Y001559D02*
X002851Y001559D01*
X002851Y001568D02*
X003125Y001568D01*
X003125Y001576D02*
X002863Y001576D01*
X002879Y001585D02*
X003125Y001585D01*
X003125Y001593D02*
X002895Y001593D01*
X002901Y001602D02*
X003125Y001602D01*
X003125Y001610D02*
X002901Y001610D01*
X002901Y001619D02*
X003125Y001619D01*
X003125Y001627D02*
X002901Y001627D01*
X002901Y001636D02*
X003125Y001636D01*
X003125Y001644D02*
X002901Y001644D01*
X002901Y001653D02*
X003125Y001653D01*
X003125Y001661D02*
X002901Y001661D01*
X002901Y001670D02*
X003125Y001670D01*
X003125Y001678D02*
X002901Y001678D01*
X002901Y001687D02*
X003125Y001687D01*
X003125Y001695D02*
X002901Y001695D01*
X002901Y001704D02*
X003125Y001704D01*
X003125Y001712D02*
X002901Y001712D01*
X002901Y001721D02*
X003125Y001721D01*
X003125Y001729D02*
X002901Y001729D01*
X002901Y001738D02*
X003125Y001738D01*
X003125Y001746D02*
X002901Y001746D01*
X002901Y001755D02*
X003125Y001755D01*
X003125Y001763D02*
X002901Y001763D01*
X002901Y001772D02*
X003125Y001772D01*
X003125Y001780D02*
X002901Y001780D01*
X002901Y001789D02*
X003125Y001789D01*
X003125Y001797D02*
X002901Y001797D01*
X002901Y001806D02*
X003125Y001806D01*
X003125Y001814D02*
X002901Y001814D01*
X002901Y001823D02*
X003125Y001823D01*
X003125Y001831D02*
X002901Y001831D01*
X002901Y001840D02*
X003125Y001840D01*
X003125Y001848D02*
X002901Y001848D01*
X002901Y001857D02*
X003125Y001857D01*
X003125Y001865D02*
X002901Y001865D01*
X002901Y001874D02*
X003125Y001874D01*
X003125Y001882D02*
X002896Y001882D01*
X002886Y001891D02*
X003125Y001891D01*
X003125Y001899D02*
X002876Y001899D01*
X002866Y001908D02*
X003125Y001908D01*
X003125Y001916D02*
X002855Y001916D01*
X002853Y001925D02*
X003125Y001925D01*
X003125Y001933D02*
X002853Y001933D01*
X002849Y001933D02*
X002653Y001933D01*
X002651Y001933D02*
X002349Y001933D01*
X002349Y001925D02*
X002651Y001925D01*
X002653Y001925D02*
X002849Y001925D01*
X002849Y001942D02*
X003125Y001942D01*
X003125Y001950D02*
X002827Y001950D01*
X002827Y001959D02*
X003125Y001959D01*
X003125Y001967D02*
X002827Y001967D01*
X002827Y001976D02*
X003125Y001976D01*
X003125Y001984D02*
X002827Y001984D01*
X002827Y001993D02*
X003125Y001993D01*
X003125Y002001D02*
X002827Y002001D01*
X002827Y002010D02*
X003125Y002010D01*
X003125Y002018D02*
X002827Y002018D01*
X002827Y002027D02*
X003125Y002027D01*
X003125Y002035D02*
X002826Y002035D01*
X002817Y002044D02*
X003125Y002044D01*
X003125Y002052D02*
X002808Y002052D01*
X002665Y002052D02*
X002349Y002052D01*
X002349Y002044D02*
X002657Y002044D01*
X002651Y002035D02*
X002349Y002035D01*
X002349Y002027D02*
X002651Y002027D01*
X002651Y002018D02*
X002349Y002018D01*
X002349Y002010D02*
X002651Y002010D01*
X002651Y002001D02*
X002349Y002001D01*
X002349Y001993D02*
X002651Y001993D01*
X002651Y001984D02*
X002349Y001984D01*
X002349Y001976D02*
X002651Y001976D01*
X002651Y001967D02*
X002349Y001967D01*
X002349Y001959D02*
X002651Y001959D01*
X002651Y001950D02*
X002349Y001950D01*
X002349Y001942D02*
X002651Y001942D01*
X002616Y001916D02*
X002349Y001916D01*
X002349Y001908D02*
X002606Y001908D01*
X002596Y001899D02*
X002349Y001899D01*
X002349Y001891D02*
X002586Y001891D01*
X002575Y001882D02*
X002349Y001882D01*
X002349Y001874D02*
X002573Y001874D01*
X002573Y001865D02*
X002349Y001865D01*
X002349Y001857D02*
X002573Y001857D01*
X002573Y001848D02*
X002349Y001848D01*
X002349Y001840D02*
X002573Y001840D01*
X002573Y001831D02*
X002349Y001831D01*
X002349Y001823D02*
X002573Y001823D01*
X002573Y001814D02*
X002349Y001814D01*
X002349Y001806D02*
X002573Y001806D01*
X002573Y001797D02*
X002349Y001797D01*
X002349Y001789D02*
X002573Y001789D01*
X002573Y001780D02*
X002349Y001780D01*
X002349Y001772D02*
X002573Y001772D01*
X002573Y001763D02*
X002349Y001763D01*
X002349Y001755D02*
X002573Y001755D01*
X002573Y001746D02*
X002349Y001746D01*
X002349Y001738D02*
X002573Y001738D01*
X002573Y001729D02*
X002349Y001729D01*
X002349Y001721D02*
X002573Y001721D01*
X002573Y001712D02*
X002349Y001712D01*
X002349Y001704D02*
X002573Y001704D01*
X002573Y001695D02*
X002349Y001695D01*
X002349Y001687D02*
X002573Y001687D01*
X002573Y001678D02*
X002349Y001678D01*
X002349Y001670D02*
X002573Y001670D01*
X002573Y001661D02*
X002349Y001661D01*
X002349Y001653D02*
X002573Y001653D01*
X002573Y001644D02*
X002349Y001644D01*
X002349Y001636D02*
X002573Y001636D01*
X002573Y001627D02*
X002349Y001627D01*
X002349Y001619D02*
X002573Y001619D01*
X002573Y001610D02*
X002349Y001610D01*
X002349Y001602D02*
X002573Y001602D01*
X002579Y001593D02*
X002349Y001593D01*
X002349Y001585D02*
X002597Y001585D01*
X002615Y001576D02*
X002349Y001576D01*
X002349Y001568D02*
X002623Y001568D01*
X002623Y001559D02*
X002349Y001559D01*
X002349Y001551D02*
X002623Y001551D01*
X002623Y001542D02*
X002349Y001542D01*
X002349Y001534D02*
X002623Y001534D01*
X002623Y001525D02*
X002349Y001525D01*
X002349Y001517D02*
X002623Y001517D01*
X002623Y001508D02*
X002349Y001508D01*
X002349Y001500D02*
X002623Y001500D01*
X002623Y001491D02*
X002349Y001491D01*
X002349Y001483D02*
X002623Y001483D01*
X002623Y001474D02*
X002349Y001474D01*
X002349Y001466D02*
X002623Y001466D01*
X002623Y001457D02*
X002349Y001457D01*
X002349Y001449D02*
X002623Y001449D01*
X002623Y001440D02*
X002349Y001440D01*
X002349Y001432D02*
X002623Y001432D01*
X002623Y001423D02*
X002349Y001423D01*
X002349Y001415D02*
X002623Y001415D01*
X002623Y001406D02*
X002349Y001406D01*
X002349Y001398D02*
X002623Y001398D01*
X002623Y001389D02*
X002349Y001389D01*
X002349Y001381D02*
X002623Y001381D01*
X002623Y001372D02*
X002349Y001372D01*
X002349Y001364D02*
X002623Y001364D01*
X002623Y001355D02*
X002349Y001355D01*
X002349Y001347D02*
X002623Y001347D01*
X002623Y001338D02*
X002349Y001338D01*
X002349Y001330D02*
X002623Y001330D01*
X002623Y001321D02*
X002349Y001321D01*
X002349Y001313D02*
X002623Y001313D01*
X002623Y001304D02*
X002349Y001304D01*
X002349Y002061D02*
X003125Y002061D01*
X003125Y002069D02*
X002349Y002069D01*
X002349Y002078D02*
X003125Y002078D01*
X003125Y002086D02*
X002349Y002086D01*
X002349Y002095D02*
X003125Y002095D01*
X003125Y002103D02*
X002349Y002103D01*
X002349Y002112D02*
X003125Y002112D01*
X003125Y002120D02*
X002349Y002120D01*
X002349Y002129D02*
X003125Y002129D01*
X003125Y002137D02*
X002349Y002137D01*
X002349Y002146D02*
X003125Y002146D01*
X003125Y002154D02*
X002349Y002154D01*
X002349Y002163D02*
X003125Y002163D01*
X003125Y002171D02*
X002349Y002171D01*
X002349Y002180D02*
X003125Y002180D01*
X003125Y002188D02*
X002349Y002188D01*
X002349Y002197D02*
X003125Y002197D01*
X003125Y002205D02*
X002349Y002205D01*
X002349Y002214D02*
X003125Y002214D01*
X003125Y002222D02*
X002349Y002222D01*
M02*
