%
M48
M72
T01C0.0400
%
T01
X2180Y750
X2180Y1750
X2180Y2750
X2180Y4026
X2180Y5026
X2180Y6026
X2180Y7301
X2180Y8301
X2180Y9301
X2180Y10577
X2180Y11577
X2180Y12577
X2180Y13852
X2180Y14852
X2180Y15852
X2180Y17128
X2180Y18128
X2180Y19128
X2180Y20404
X2180Y21404
X2180Y22404
X2180Y23679
X2180Y24679
X2180Y25679
X2180Y26955
X2180Y27955
X2180Y28955
X2180Y30230
X2180Y31230
X2180Y32230
X2180Y33506
X2180Y34506
X2180Y35506
X2180Y36781
X2180Y37781
X2180Y38781
X6180Y38781
X6180Y37781
X6180Y36781
X6180Y35506
X6180Y34506
X6180Y33506
X6180Y32230
X6180Y31230
X6180Y30230
X6180Y28955
X6180Y27955
X6180Y26955
X6180Y25679
X6180Y24679
X6180Y23679
X7455Y23679
X7455Y24679
X7455Y25679
X7455Y26955
X7455Y27955
X7455Y28955
X7455Y30230
X7455Y31230
X7455Y32230
X7455Y33506
X7455Y34506
X7455Y35506
X7455Y36781
X7455Y37781
X7455Y38781
X11455Y38781
X11455Y37781
X11455Y36781
X11455Y35506
X11455Y34506
X11455Y33506
X11455Y32230
X11455Y31230
X11455Y30230
X11455Y28955
X11455Y27955
X11455Y26955
X11455Y25679
X11455Y24679
X11455Y23679
X11455Y22404
X11455Y21404
X11455Y20404
X11455Y19128
X11455Y18128
X11455Y17128
X11455Y15852
X11455Y14852
X11455Y13852
X11455Y12577
X11455Y11577
X11455Y10577
X11455Y9301
X11455Y8301
X11455Y7301
X11455Y6026
X11455Y5026
X11455Y4026
X12731Y4026
X12731Y5026
X12731Y6026
X12731Y7301
X12731Y8301
X12731Y9301
X12731Y10577
X12731Y11577
X12731Y12577
X12731Y13852
X12731Y14852
X12731Y15852
X12731Y17128
X12731Y18128
X12731Y19128
X12731Y20404
X12731Y21404
X12731Y22404
X12731Y23679
X12731Y24679
X12731Y25679
X12731Y26955
X12731Y27955
X12731Y28955
X12731Y30230
X12731Y31230
X12731Y32230
X12731Y33506
X12731Y34506
X12731Y35506
X12731Y36781
X12731Y37781
X12731Y38781
X16731Y38781
X16731Y37781
X16731Y36781
X16731Y35506
X16731Y34506
X16731Y33506
X18007Y33506
X18007Y34506
X18007Y35506
X18007Y36781
X18007Y37781
X18007Y38781
X22007Y38781
X22007Y37781
X22007Y36781
X22007Y35506
X22007Y34506
X22007Y33506
X22007Y32230
X22007Y31230
X22007Y30230
X22007Y28955
X22007Y27955
X22007Y26955
X22007Y25679
X22007Y24679
X22007Y23679
X23282Y23679
X23282Y24679
X23282Y25679
X23282Y26955
X23282Y27955
X23282Y28955
X23282Y30230
X23282Y31230
X23282Y32230
X23282Y33506
X23282Y34506
X23282Y35506
X23282Y36781
X23282Y37781
X23282Y38781
X27282Y38781
X27282Y37781
X27282Y36781
X27282Y35506
X27282Y34506
X27282Y33506
X27282Y32230
X27282Y31230
X27282Y30230
X27282Y28955
X27282Y27955
X27282Y26955
X27282Y25679
X27282Y24679
X27282Y23679
X27282Y22404
X27282Y21404
X27282Y20404
X27282Y19128
X27282Y18128
X27282Y17128
X27282Y15852
X27282Y14852
X27282Y13852
X27282Y12577
X27282Y11577
X27282Y10577
X27282Y9301
X27282Y8301
X27282Y7301
X27282Y6026
X27282Y5026
X27282Y4026
X28558Y4026
X28558Y5026
X28558Y6026
X28558Y7301
X28558Y8301
X28558Y9301
X28558Y10577
X28558Y11577
X28558Y12577
X28558Y13852
X28558Y14852
X28558Y15852
X28558Y17128
X28558Y18128
X28558Y19128
X28558Y20404
X28558Y21404
X28558Y22404
X28558Y23679
X28558Y24679
X28558Y25679
X28558Y26955
X28558Y27955
X28558Y28955
X28558Y30230
X28558Y31230
X28558Y32230
X28558Y33506
X28558Y34506
X28558Y35506
X28558Y36781
X28558Y37781
X28558Y38781
X32558Y38781
X32558Y37781
X32558Y36781
X32558Y35506
X32558Y34506
X32558Y33506
X32558Y32230
X32558Y31230
X32558Y30230
X32558Y28955
X32558Y27955
X32558Y26955
X32558Y25679
X32558Y24679
X32558Y23679
X32558Y22404
X32558Y21404
X32558Y20404
X32558Y19128
X32558Y18128
X32558Y17128
X32558Y15852
X32558Y14852
X32558Y13852
X32558Y12577
X32558Y11577
X32558Y10577
X32558Y9301
X32558Y8301
X32558Y7301
X32558Y6026
X32558Y5026
X32558Y4026
X32558Y2750
X32558Y1750
X32558Y750
X28558Y750
X28558Y1750
X28558Y2750
X27282Y2750
X27282Y1750
X27282Y750
X23282Y750
X23282Y1750
X23282Y2750
X22007Y2750
X22007Y1750
X22007Y750
X22007Y4026
X22007Y5026
X22007Y6026
X22007Y7301
X22007Y8301
X22007Y9301
X22007Y10577
X22007Y11577
X22007Y12577
X23282Y12577
X23282Y11577
X23282Y10577
X23282Y9301
X23282Y8301
X23282Y7301
X23282Y6026
X23282Y5026
X23282Y4026
X18007Y4026
X18007Y5026
X18007Y6026
X18007Y7301
X18007Y8301
X18007Y9301
X18007Y10577
X18007Y11577
X18007Y12577
X16731Y12577
X16731Y11577
X16731Y10577
X16731Y9301
X16731Y8301
X16731Y7301
X16731Y6026
X16731Y5026
X16731Y4026
X16731Y2750
X16731Y1750
X16731Y750
X18007Y750
X18007Y1750
X18007Y2750
X12731Y2750
X12731Y1750
X12731Y750
X11455Y750
X11455Y1750
X11455Y2750
X7455Y2750
X7455Y1750
X7455Y750
X6180Y750
X6180Y1750
X6180Y2750
X6180Y4026
X6180Y5026
X6180Y6026
X6180Y7301
X6180Y8301
X6180Y9301
X6180Y10577
X6180Y11577
X6180Y12577
X6180Y13852
X6180Y14852
X6180Y15852
X6180Y17128
X6180Y18128
X6180Y19128
X6180Y20404
X6180Y21404
X6180Y22404
X7455Y22404
X7455Y21404
X7455Y20404
X7455Y19128
X7455Y18128
X7455Y17128
X7455Y15852
X7455Y14852
X7455Y13852
X7455Y12577
X7455Y11577
X7455Y10577
X7455Y9301
X7455Y8301
X7455Y7301
X7455Y6026
X7455Y5026
X7455Y4026
X16731Y13852
X16731Y14852
X16731Y15852
X18007Y15852
X18007Y14852
X18007Y13852
X18007Y17128
X18007Y18128
X18007Y19128
X18007Y20404
X18007Y21404
X18007Y22404
X16731Y22404
X16731Y21404
X16731Y20404
X16731Y19128
X16731Y18128
X16731Y17128
X22007Y17128
X22007Y18128
X22007Y19128
X22007Y20404
X22007Y21404
X22007Y22404
X23282Y22404
X23282Y21404
X23282Y20404
X23282Y19128
X23282Y18128
X23282Y17128
X23282Y15852
X23282Y14852
X23282Y13852
X22007Y13852
X22007Y14852
X22007Y15852
X18007Y23679
X18007Y24679
X18007Y25679
X18007Y26955
X18007Y27955
X18007Y28955
X18007Y30230
X18007Y31230
X18007Y32230
X16731Y32230
X16731Y31230
X16731Y30230
X16731Y28955
X16731Y27955
X16731Y26955
X16731Y25679
X16731Y24679
X16731Y23679
M30
