G75*
%MOIN*%
%OFA0B0*%
%FSLAX24Y24*%
%IPPOS*%
%LPD*%
%AMOC8*
5,1,8,0,0,1.08239X$1,22.5*
%
%ADD10R,0.0820X0.0820*%
%ADD11C,0.0820*%
D10*
X002180Y000750D03*
X002180Y004026D03*
X002180Y007301D03*
X002180Y010577D03*
X002180Y013852D03*
X002180Y017128D03*
X002180Y020404D03*
X002180Y023679D03*
X002180Y026955D03*
X002180Y030230D03*
X002180Y033506D03*
X002180Y036781D03*
X007455Y036781D03*
X007455Y033506D03*
X007455Y030230D03*
X007455Y026955D03*
X007455Y023679D03*
X007455Y020404D03*
X007455Y017128D03*
X007455Y013852D03*
X007455Y010577D03*
X007455Y007301D03*
X007455Y004026D03*
X007455Y000750D03*
X012731Y000750D03*
X012731Y004026D03*
X012731Y007301D03*
X012731Y010577D03*
X012731Y013852D03*
X012731Y017128D03*
X012731Y020404D03*
X012731Y023679D03*
X012731Y026955D03*
X012731Y030230D03*
X012731Y033506D03*
X012731Y036781D03*
X018007Y036781D03*
X018007Y033506D03*
X018007Y030230D03*
X018007Y026955D03*
X018007Y023679D03*
X018007Y020404D03*
X018007Y017128D03*
X018007Y013852D03*
X018007Y010577D03*
X018007Y007301D03*
X018007Y004026D03*
X018007Y000750D03*
X023282Y000750D03*
X023282Y004026D03*
X023282Y007301D03*
X023282Y010577D03*
X023282Y013852D03*
X023282Y017128D03*
X023282Y020404D03*
X023282Y023679D03*
X023282Y026955D03*
X023282Y030230D03*
X023282Y033506D03*
X023282Y036781D03*
X028558Y036781D03*
X028558Y033506D03*
X028558Y030230D03*
X028558Y026955D03*
X028558Y023679D03*
X028558Y020404D03*
X028558Y017128D03*
X028558Y013852D03*
X028558Y010577D03*
X028558Y007301D03*
X028558Y004026D03*
X028558Y000750D03*
D11*
X028558Y001750D03*
X028558Y002750D03*
X027282Y002750D03*
X027282Y001750D03*
X027282Y000750D03*
X027282Y004026D03*
X027282Y005026D03*
X027282Y006026D03*
X027282Y007301D03*
X027282Y008301D03*
X027282Y009301D03*
X027282Y010577D03*
X027282Y011577D03*
X027282Y012577D03*
X027282Y013852D03*
X027282Y014852D03*
X027282Y015852D03*
X027282Y017128D03*
X027282Y018128D03*
X027282Y019128D03*
X027282Y020404D03*
X027282Y021404D03*
X027282Y022404D03*
X027282Y023679D03*
X027282Y024679D03*
X027282Y025679D03*
X027282Y026955D03*
X027282Y027955D03*
X027282Y028955D03*
X027282Y030230D03*
X027282Y031230D03*
X027282Y032230D03*
X027282Y033506D03*
X027282Y034506D03*
X027282Y035506D03*
X027282Y036781D03*
X027282Y037781D03*
X027282Y038781D03*
X028558Y038781D03*
X028558Y037781D03*
X028558Y035506D03*
X028558Y034506D03*
X028558Y032230D03*
X028558Y031230D03*
X028558Y028955D03*
X028558Y027955D03*
X028558Y025679D03*
X028558Y024679D03*
X028558Y022404D03*
X028558Y021404D03*
X028558Y019128D03*
X028558Y018128D03*
X028558Y015852D03*
X028558Y014852D03*
X028558Y012577D03*
X028558Y011577D03*
X028558Y009301D03*
X028558Y008301D03*
X028558Y006026D03*
X028558Y005026D03*
X032558Y005026D03*
X032558Y004026D03*
X032558Y002750D03*
X032558Y001750D03*
X032558Y000750D03*
X032558Y006026D03*
X032558Y007301D03*
X032558Y008301D03*
X032558Y009301D03*
X032558Y010577D03*
X032558Y011577D03*
X032558Y012577D03*
X032558Y013852D03*
X032558Y014852D03*
X032558Y015852D03*
X032558Y017128D03*
X032558Y018128D03*
X032558Y019128D03*
X032558Y020404D03*
X032558Y021404D03*
X032558Y022404D03*
X032558Y023679D03*
X032558Y024679D03*
X032558Y025679D03*
X032558Y026955D03*
X032558Y027955D03*
X032558Y028955D03*
X032558Y030230D03*
X032558Y031230D03*
X032558Y032230D03*
X032558Y033506D03*
X032558Y034506D03*
X032558Y035506D03*
X032558Y036781D03*
X032558Y037781D03*
X032558Y038781D03*
X023282Y038781D03*
X023282Y037781D03*
X022007Y037781D03*
X022007Y036781D03*
X022007Y035506D03*
X022007Y034506D03*
X022007Y033506D03*
X022007Y032230D03*
X022007Y031230D03*
X022007Y030230D03*
X022007Y028955D03*
X022007Y027955D03*
X022007Y026955D03*
X022007Y025679D03*
X022007Y024679D03*
X022007Y023679D03*
X022007Y022404D03*
X022007Y021404D03*
X022007Y020404D03*
X022007Y019128D03*
X022007Y018128D03*
X022007Y017128D03*
X022007Y015852D03*
X022007Y014852D03*
X022007Y013852D03*
X022007Y012577D03*
X022007Y011577D03*
X022007Y010577D03*
X022007Y009301D03*
X022007Y008301D03*
X022007Y007301D03*
X022007Y006026D03*
X022007Y005026D03*
X022007Y004026D03*
X022007Y002750D03*
X022007Y001750D03*
X022007Y000750D03*
X023282Y001750D03*
X023282Y002750D03*
X023282Y005026D03*
X023282Y006026D03*
X023282Y008301D03*
X023282Y009301D03*
X023282Y011577D03*
X023282Y012577D03*
X023282Y014852D03*
X023282Y015852D03*
X023282Y018128D03*
X023282Y019128D03*
X023282Y021404D03*
X023282Y022404D03*
X023282Y024679D03*
X023282Y025679D03*
X023282Y027955D03*
X023282Y028955D03*
X023282Y031230D03*
X023282Y032230D03*
X023282Y034506D03*
X023282Y035506D03*
X022007Y038781D03*
X018007Y038781D03*
X018007Y037781D03*
X016731Y037781D03*
X016731Y036781D03*
X016731Y035506D03*
X016731Y034506D03*
X016731Y033506D03*
X016731Y032230D03*
X016731Y031230D03*
X016731Y030230D03*
X016731Y028955D03*
X016731Y027955D03*
X016731Y026955D03*
X016731Y025679D03*
X016731Y024679D03*
X016731Y023679D03*
X018007Y024679D03*
X018007Y025679D03*
X018007Y027955D03*
X018007Y028955D03*
X018007Y031230D03*
X018007Y032230D03*
X018007Y034506D03*
X018007Y035506D03*
X016731Y038781D03*
X012731Y038781D03*
X012731Y037781D03*
X011455Y037781D03*
X011455Y036781D03*
X011455Y035506D03*
X011455Y034506D03*
X011455Y033506D03*
X011455Y032230D03*
X011455Y031230D03*
X011455Y030230D03*
X011455Y028955D03*
X011455Y027955D03*
X011455Y026955D03*
X011455Y025679D03*
X011455Y024679D03*
X011455Y023679D03*
X011455Y022404D03*
X011455Y021404D03*
X011455Y020404D03*
X011455Y019128D03*
X011455Y018128D03*
X011455Y017128D03*
X011455Y015852D03*
X011455Y014852D03*
X011455Y013852D03*
X011455Y012577D03*
X011455Y011577D03*
X011455Y010577D03*
X011455Y009301D03*
X011455Y008301D03*
X011455Y007301D03*
X011455Y006026D03*
X011455Y005026D03*
X011455Y004026D03*
X011455Y002750D03*
X011455Y001750D03*
X011455Y000750D03*
X012731Y001750D03*
X012731Y002750D03*
X012731Y005026D03*
X012731Y006026D03*
X012731Y008301D03*
X012731Y009301D03*
X012731Y011577D03*
X012731Y012577D03*
X012731Y014852D03*
X012731Y015852D03*
X012731Y018128D03*
X012731Y019128D03*
X012731Y021404D03*
X012731Y022404D03*
X012731Y024679D03*
X012731Y025679D03*
X012731Y027955D03*
X012731Y028955D03*
X012731Y031230D03*
X012731Y032230D03*
X012731Y034506D03*
X012731Y035506D03*
X011455Y038781D03*
X007455Y038781D03*
X007455Y037781D03*
X006180Y037781D03*
X006180Y036781D03*
X006180Y035506D03*
X006180Y034506D03*
X006180Y033506D03*
X006180Y032230D03*
X006180Y031230D03*
X006180Y030230D03*
X006180Y028955D03*
X006180Y027955D03*
X006180Y026955D03*
X006180Y025679D03*
X006180Y024679D03*
X006180Y023679D03*
X006180Y022404D03*
X006180Y021404D03*
X006180Y020404D03*
X006180Y019128D03*
X006180Y018128D03*
X006180Y017128D03*
X006180Y015852D03*
X006180Y014852D03*
X006180Y013852D03*
X006180Y012577D03*
X006180Y011577D03*
X006180Y010577D03*
X006180Y009301D03*
X006180Y008301D03*
X006180Y007301D03*
X006180Y006026D03*
X006180Y005026D03*
X006180Y004026D03*
X006180Y002750D03*
X006180Y001750D03*
X006180Y000750D03*
X007455Y001750D03*
X007455Y002750D03*
X007455Y005026D03*
X007455Y006026D03*
X007455Y008301D03*
X007455Y009301D03*
X007455Y011577D03*
X007455Y012577D03*
X007455Y014852D03*
X007455Y015852D03*
X007455Y018128D03*
X007455Y019128D03*
X007455Y021404D03*
X007455Y022404D03*
X007455Y024679D03*
X007455Y025679D03*
X007455Y027955D03*
X007455Y028955D03*
X007455Y031230D03*
X007455Y032230D03*
X007455Y034506D03*
X007455Y035506D03*
X006180Y038781D03*
X002180Y038781D03*
X002180Y037781D03*
X002180Y035506D03*
X002180Y034506D03*
X002180Y032230D03*
X002180Y031230D03*
X002180Y028955D03*
X002180Y027955D03*
X002180Y025679D03*
X002180Y024679D03*
X002180Y022404D03*
X002180Y021404D03*
X002180Y019128D03*
X002180Y018128D03*
X002180Y015852D03*
X002180Y014852D03*
X002180Y012577D03*
X002180Y011577D03*
X002180Y009301D03*
X002180Y008301D03*
X002180Y006026D03*
X002180Y005026D03*
X002180Y002750D03*
X002180Y001750D03*
X016731Y001750D03*
X016731Y002750D03*
X018007Y002750D03*
X018007Y001750D03*
X016731Y000750D03*
X016731Y004026D03*
X016731Y005026D03*
X016731Y006026D03*
X016731Y007301D03*
X016731Y008301D03*
X016731Y009301D03*
X018007Y009301D03*
X018007Y008301D03*
X016731Y010577D03*
X016731Y011577D03*
X016731Y012577D03*
X018007Y012577D03*
X018007Y011577D03*
X016731Y013852D03*
X016731Y014852D03*
X016731Y015852D03*
X018007Y015852D03*
X018007Y014852D03*
X016731Y017128D03*
X016731Y018128D03*
X016731Y019128D03*
X016731Y020404D03*
X016731Y021404D03*
X016731Y022404D03*
X018007Y022404D03*
X018007Y021404D03*
X018007Y019128D03*
X018007Y018128D03*
X018007Y006026D03*
X018007Y005026D03*
M02*
