G75*
%MOIN*%
%OFA0B0*%
%FSLAX24Y24*%
%IPPOS*%
%LPD*%
%AMOC8*
5,1,8,0,0,1.08239X$1,22.5*
%
%ADD10R,0.0513X0.0789*%
%ADD11R,0.0434X0.0356*%
%ADD12R,0.0820X0.0820*%
%ADD13C,0.0820*%
D10*
X003750Y000884D03*
X005010Y000884D03*
X005010Y002616D03*
X003750Y002616D03*
X003750Y004159D03*
X005010Y004159D03*
X005010Y005892D03*
X003750Y005892D03*
X003750Y007435D03*
X005010Y007435D03*
X005010Y009167D03*
X003750Y009167D03*
X003750Y010711D03*
X005010Y010711D03*
X005010Y012443D03*
X003750Y012443D03*
X003750Y013986D03*
X005010Y013986D03*
X005010Y015719D03*
X003750Y015719D03*
X003750Y017262D03*
X005010Y017262D03*
X005010Y018994D03*
X003750Y018994D03*
X003750Y020537D03*
X005010Y020537D03*
X005010Y022270D03*
X003750Y022270D03*
X003750Y023813D03*
X005010Y023813D03*
X005010Y025545D03*
X003750Y025545D03*
X003750Y027089D03*
X005010Y027089D03*
X005010Y028821D03*
X003750Y028821D03*
X003750Y030364D03*
X005010Y030364D03*
X005010Y032096D03*
X003750Y032096D03*
X003750Y033640D03*
X005010Y033640D03*
X005010Y035372D03*
X003750Y035372D03*
X003750Y036915D03*
X005010Y036915D03*
X005010Y038648D03*
X003750Y038648D03*
X009025Y038648D03*
X010285Y038648D03*
X010285Y036915D03*
X009025Y036915D03*
X009025Y035372D03*
X010285Y035372D03*
X010285Y033640D03*
X009025Y033640D03*
X009025Y032096D03*
X010285Y032096D03*
X010285Y030364D03*
X009025Y030364D03*
X009025Y028821D03*
X010285Y028821D03*
X010285Y027089D03*
X009025Y027089D03*
X009025Y025545D03*
X010285Y025545D03*
X010285Y023813D03*
X009025Y023813D03*
X009025Y022270D03*
X010285Y022270D03*
X010285Y020537D03*
X009025Y020537D03*
X009025Y018994D03*
X010285Y018994D03*
X010285Y017262D03*
X009025Y017262D03*
X009025Y015719D03*
X010285Y015719D03*
X010285Y013986D03*
X009025Y013986D03*
X009025Y012443D03*
X010285Y012443D03*
X010285Y010711D03*
X009025Y010711D03*
X009025Y009167D03*
X010285Y009167D03*
X010285Y007435D03*
X009025Y007435D03*
X009025Y005892D03*
X010285Y005892D03*
X010285Y004159D03*
X009025Y004159D03*
X009025Y002616D03*
X010285Y002616D03*
X010285Y000884D03*
X009025Y000884D03*
X014301Y000884D03*
X015561Y000884D03*
X015561Y002616D03*
X014301Y002616D03*
X014301Y004159D03*
X015561Y004159D03*
X015561Y005892D03*
X014301Y005892D03*
X014301Y007435D03*
X015561Y007435D03*
X015561Y009167D03*
X014301Y009167D03*
X014301Y010711D03*
X015561Y010711D03*
X015561Y012443D03*
X014301Y012443D03*
X014301Y013986D03*
X015561Y013986D03*
X015561Y015719D03*
X014301Y015719D03*
X014301Y017262D03*
X015561Y017262D03*
X015561Y018994D03*
X014301Y018994D03*
X014301Y020537D03*
X015561Y020537D03*
X015561Y022270D03*
X014301Y022270D03*
X014301Y023813D03*
X015561Y023813D03*
X015561Y025545D03*
X014301Y025545D03*
X014301Y027089D03*
X015561Y027089D03*
X015561Y028821D03*
X014301Y028821D03*
X014301Y030364D03*
X015561Y030364D03*
X015561Y032096D03*
X014301Y032096D03*
X014301Y033640D03*
X015561Y033640D03*
X015561Y035372D03*
X014301Y035372D03*
X014301Y036915D03*
X015561Y036915D03*
X015561Y038648D03*
X014301Y038648D03*
X019577Y038648D03*
X020836Y038648D03*
X020836Y036915D03*
X019577Y036915D03*
X019577Y035372D03*
X020836Y035372D03*
X020836Y033640D03*
X019577Y033640D03*
X019577Y032096D03*
X020836Y032096D03*
X020836Y030364D03*
X019577Y030364D03*
X019577Y028821D03*
X020836Y028821D03*
X020836Y027089D03*
X019577Y027089D03*
X019577Y025545D03*
X020836Y025545D03*
X020836Y023813D03*
X019577Y023813D03*
X019577Y022270D03*
X020836Y022270D03*
X020836Y020537D03*
X019577Y020537D03*
X019577Y018994D03*
X020836Y018994D03*
X020836Y017262D03*
X019577Y017262D03*
X019577Y015719D03*
X020836Y015719D03*
X020836Y013986D03*
X019577Y013986D03*
X019577Y012443D03*
X020836Y012443D03*
X020836Y010711D03*
X019577Y010711D03*
X019577Y009167D03*
X020836Y009167D03*
X020836Y007435D03*
X019577Y007435D03*
X019577Y005892D03*
X020836Y005892D03*
X020836Y004159D03*
X019577Y004159D03*
X019577Y002616D03*
X020836Y002616D03*
X020836Y000884D03*
X019577Y000884D03*
X024852Y000884D03*
X026112Y000884D03*
X026112Y002616D03*
X024852Y002616D03*
X024852Y004159D03*
X026112Y004159D03*
X026112Y005892D03*
X024852Y005892D03*
X024852Y007435D03*
X026112Y007435D03*
X026112Y009167D03*
X024852Y009167D03*
X024852Y010711D03*
X026112Y010711D03*
X026112Y012443D03*
X024852Y012443D03*
X024852Y013986D03*
X026112Y013986D03*
X026112Y015719D03*
X024852Y015719D03*
X024852Y017262D03*
X026112Y017262D03*
X026112Y018994D03*
X024852Y018994D03*
X024852Y020537D03*
X026112Y020537D03*
X026112Y022270D03*
X024852Y022270D03*
X024852Y023813D03*
X026112Y023813D03*
X026112Y025545D03*
X024852Y025545D03*
X024852Y027089D03*
X026112Y027089D03*
X026112Y028821D03*
X024852Y028821D03*
X024852Y030364D03*
X026112Y030364D03*
X026112Y032096D03*
X024852Y032096D03*
X024852Y033640D03*
X026112Y033640D03*
X026112Y035372D03*
X024852Y035372D03*
X024852Y036915D03*
X026112Y036915D03*
X026112Y038648D03*
X024852Y038648D03*
X030128Y038648D03*
X031388Y038648D03*
X031388Y036915D03*
X030128Y036915D03*
X030128Y035372D03*
X031388Y035372D03*
X031388Y033640D03*
X030128Y033640D03*
X030128Y032096D03*
X031388Y032096D03*
X031388Y030364D03*
X030128Y030364D03*
X030128Y028821D03*
X031388Y028821D03*
X031388Y027089D03*
X030128Y027089D03*
X030128Y025545D03*
X031388Y025545D03*
X031388Y023813D03*
X030128Y023813D03*
X030128Y022270D03*
X031388Y022270D03*
X031388Y020537D03*
X030128Y020537D03*
X030128Y018994D03*
X031388Y018994D03*
X031388Y017262D03*
X030128Y017262D03*
X030128Y015719D03*
X031388Y015719D03*
X031388Y013986D03*
X030128Y013986D03*
X030128Y012443D03*
X031388Y012443D03*
X031388Y010711D03*
X030128Y010711D03*
X030128Y009167D03*
X031388Y009167D03*
X031388Y007435D03*
X030128Y007435D03*
X030128Y005892D03*
X031388Y005892D03*
X031388Y004159D03*
X030128Y004159D03*
X030128Y002616D03*
X031388Y002616D03*
X031388Y000884D03*
X030128Y000884D03*
D11*
X029433Y001794D03*
X029433Y002306D03*
X029433Y005070D03*
X029433Y005581D03*
X029433Y008345D03*
X029433Y008857D03*
X029433Y011621D03*
X029433Y012133D03*
X029433Y014896D03*
X029433Y015408D03*
X029433Y018172D03*
X029433Y018684D03*
X029433Y021448D03*
X029433Y021959D03*
X029433Y024723D03*
X029433Y025235D03*
X029433Y027999D03*
X029433Y028511D03*
X029433Y031274D03*
X029433Y031786D03*
X029433Y034550D03*
X029433Y035062D03*
X029433Y037826D03*
X029433Y038337D03*
X024157Y038337D03*
X024157Y037826D03*
X024157Y035062D03*
X024157Y034550D03*
X024157Y031786D03*
X024157Y031274D03*
X024157Y028511D03*
X024157Y027999D03*
X024157Y025235D03*
X024157Y024723D03*
X024157Y021959D03*
X024157Y021448D03*
X024157Y018684D03*
X024157Y018172D03*
X024157Y015408D03*
X024157Y014896D03*
X024157Y012133D03*
X024157Y011621D03*
X024157Y008857D03*
X024157Y008345D03*
X024157Y005581D03*
X024157Y005070D03*
X024157Y002306D03*
X024157Y001794D03*
X018882Y001794D03*
X018882Y002306D03*
X018882Y005070D03*
X018882Y005581D03*
X018882Y008345D03*
X018882Y008857D03*
X018882Y011621D03*
X018882Y012133D03*
X018882Y014896D03*
X018882Y015408D03*
X018882Y018172D03*
X018882Y018684D03*
X018882Y021448D03*
X018882Y021959D03*
X018882Y024723D03*
X018882Y025235D03*
X018882Y027999D03*
X018882Y028511D03*
X018882Y031274D03*
X018882Y031786D03*
X018882Y034550D03*
X018882Y035062D03*
X018882Y037826D03*
X018882Y038337D03*
X013606Y038337D03*
X013606Y037826D03*
X013606Y035062D03*
X013606Y034550D03*
X013606Y031786D03*
X013606Y031274D03*
X013606Y028511D03*
X013606Y027999D03*
X013606Y025235D03*
X013606Y024723D03*
X013606Y021959D03*
X013606Y021448D03*
X013606Y018684D03*
X013606Y018172D03*
X013606Y015408D03*
X013606Y014896D03*
X013606Y012133D03*
X013606Y011621D03*
X013606Y008857D03*
X013606Y008345D03*
X013606Y005581D03*
X013606Y005070D03*
X013606Y002306D03*
X013606Y001794D03*
X008330Y001794D03*
X008330Y002306D03*
X008330Y005070D03*
X008330Y005581D03*
X008330Y008345D03*
X008330Y008857D03*
X008330Y011621D03*
X008330Y012133D03*
X008330Y014896D03*
X008330Y015408D03*
X008330Y018172D03*
X008330Y018684D03*
X008330Y021448D03*
X008330Y021959D03*
X008330Y024723D03*
X008330Y025235D03*
X008330Y027999D03*
X008330Y028511D03*
X008330Y031274D03*
X008330Y031786D03*
X008330Y034550D03*
X008330Y035062D03*
X008330Y037826D03*
X008330Y038337D03*
X003055Y038337D03*
X003055Y037826D03*
X003055Y035062D03*
X003055Y034550D03*
X003055Y031786D03*
X003055Y031274D03*
X003055Y028511D03*
X003055Y027999D03*
X003055Y025235D03*
X003055Y024723D03*
X003055Y021959D03*
X003055Y021448D03*
X003055Y018684D03*
X003055Y018172D03*
X003055Y015408D03*
X003055Y014896D03*
X003055Y012133D03*
X003055Y011621D03*
X003055Y008857D03*
X003055Y008345D03*
X003055Y005581D03*
X003055Y005070D03*
X003055Y002306D03*
X003055Y001794D03*
D12*
X002180Y000750D03*
X002180Y004026D03*
X002180Y007301D03*
X002180Y010577D03*
X002180Y013852D03*
X002180Y017128D03*
X002180Y020404D03*
X002180Y023679D03*
X002180Y026955D03*
X002180Y030230D03*
X002180Y033506D03*
X002180Y036781D03*
X007455Y036781D03*
X007455Y033506D03*
X007455Y030230D03*
X007455Y026955D03*
X007455Y023679D03*
X007455Y020404D03*
X007455Y017128D03*
X007455Y013852D03*
X007455Y010577D03*
X007455Y007301D03*
X007455Y004026D03*
X007455Y000750D03*
X012731Y000750D03*
X012731Y004026D03*
X012731Y007301D03*
X012731Y010577D03*
X012731Y013852D03*
X012731Y017128D03*
X012731Y020404D03*
X012731Y023679D03*
X012731Y026955D03*
X012731Y030230D03*
X012731Y033506D03*
X012731Y036781D03*
X018007Y036781D03*
X018007Y033506D03*
X018007Y030230D03*
X018007Y026955D03*
X018007Y023679D03*
X018007Y020404D03*
X018007Y017128D03*
X018007Y013852D03*
X018007Y010577D03*
X018007Y007301D03*
X018007Y004026D03*
X018007Y000750D03*
X023282Y000750D03*
X023282Y004026D03*
X023282Y007301D03*
X023282Y010577D03*
X023282Y013852D03*
X023282Y017128D03*
X023282Y020404D03*
X023282Y023679D03*
X023282Y026955D03*
X023282Y030230D03*
X023282Y033506D03*
X023282Y036781D03*
X028558Y036781D03*
X028558Y033506D03*
X028558Y030230D03*
X028558Y026955D03*
X028558Y023679D03*
X028558Y020404D03*
X028558Y017128D03*
X028558Y013852D03*
X028558Y010577D03*
X028558Y007301D03*
X028558Y004026D03*
X028558Y000750D03*
D13*
X028558Y001750D03*
X028558Y002750D03*
X027282Y002750D03*
X027282Y001750D03*
X027282Y000750D03*
X027282Y004026D03*
X027282Y005026D03*
X027282Y006026D03*
X027282Y007301D03*
X027282Y008301D03*
X027282Y009301D03*
X027282Y010577D03*
X027282Y011577D03*
X027282Y012577D03*
X027282Y013852D03*
X027282Y014852D03*
X027282Y015852D03*
X027282Y017128D03*
X027282Y018128D03*
X027282Y019128D03*
X027282Y020404D03*
X027282Y021404D03*
X027282Y022404D03*
X027282Y023679D03*
X027282Y024679D03*
X027282Y025679D03*
X027282Y026955D03*
X027282Y027955D03*
X027282Y028955D03*
X027282Y030230D03*
X027282Y031230D03*
X027282Y032230D03*
X027282Y033506D03*
X027282Y034506D03*
X027282Y035506D03*
X027282Y036781D03*
X027282Y037781D03*
X027282Y038781D03*
X028558Y038781D03*
X028558Y037781D03*
X028558Y035506D03*
X028558Y034506D03*
X028558Y032230D03*
X028558Y031230D03*
X028558Y028955D03*
X028558Y027955D03*
X028558Y025679D03*
X028558Y024679D03*
X028558Y022404D03*
X028558Y021404D03*
X028558Y019128D03*
X028558Y018128D03*
X028558Y015852D03*
X028558Y014852D03*
X028558Y012577D03*
X028558Y011577D03*
X028558Y009301D03*
X028558Y008301D03*
X028558Y006026D03*
X028558Y005026D03*
X032558Y005026D03*
X032558Y004026D03*
X032558Y002750D03*
X032558Y001750D03*
X032558Y000750D03*
X032558Y006026D03*
X032558Y007301D03*
X032558Y008301D03*
X032558Y009301D03*
X032558Y010577D03*
X032558Y011577D03*
X032558Y012577D03*
X032558Y013852D03*
X032558Y014852D03*
X032558Y015852D03*
X032558Y017128D03*
X032558Y018128D03*
X032558Y019128D03*
X032558Y020404D03*
X032558Y021404D03*
X032558Y022404D03*
X032558Y023679D03*
X032558Y024679D03*
X032558Y025679D03*
X032558Y026955D03*
X032558Y027955D03*
X032558Y028955D03*
X032558Y030230D03*
X032558Y031230D03*
X032558Y032230D03*
X032558Y033506D03*
X032558Y034506D03*
X032558Y035506D03*
X032558Y036781D03*
X032558Y037781D03*
X032558Y038781D03*
X023282Y038781D03*
X023282Y037781D03*
X022007Y037781D03*
X022007Y036781D03*
X022007Y035506D03*
X022007Y034506D03*
X022007Y033506D03*
X022007Y032230D03*
X022007Y031230D03*
X022007Y030230D03*
X022007Y028955D03*
X022007Y027955D03*
X022007Y026955D03*
X022007Y025679D03*
X022007Y024679D03*
X022007Y023679D03*
X022007Y022404D03*
X022007Y021404D03*
X022007Y020404D03*
X022007Y019128D03*
X022007Y018128D03*
X022007Y017128D03*
X022007Y015852D03*
X022007Y014852D03*
X022007Y013852D03*
X022007Y012577D03*
X022007Y011577D03*
X022007Y010577D03*
X022007Y009301D03*
X022007Y008301D03*
X022007Y007301D03*
X022007Y006026D03*
X022007Y005026D03*
X022007Y004026D03*
X022007Y002750D03*
X022007Y001750D03*
X022007Y000750D03*
X023282Y001750D03*
X023282Y002750D03*
X023282Y005026D03*
X023282Y006026D03*
X023282Y008301D03*
X023282Y009301D03*
X023282Y011577D03*
X023282Y012577D03*
X023282Y014852D03*
X023282Y015852D03*
X023282Y018128D03*
X023282Y019128D03*
X023282Y021404D03*
X023282Y022404D03*
X023282Y024679D03*
X023282Y025679D03*
X023282Y027955D03*
X023282Y028955D03*
X023282Y031230D03*
X023282Y032230D03*
X023282Y034506D03*
X023282Y035506D03*
X022007Y038781D03*
X018007Y038781D03*
X018007Y037781D03*
X016731Y037781D03*
X016731Y036781D03*
X016731Y035506D03*
X016731Y034506D03*
X016731Y033506D03*
X016731Y032230D03*
X016731Y031230D03*
X016731Y030230D03*
X016731Y028955D03*
X016731Y027955D03*
X016731Y026955D03*
X016731Y025679D03*
X016731Y024679D03*
X016731Y023679D03*
X018007Y024679D03*
X018007Y025679D03*
X018007Y027955D03*
X018007Y028955D03*
X018007Y031230D03*
X018007Y032230D03*
X018007Y034506D03*
X018007Y035506D03*
X016731Y038781D03*
X012731Y038781D03*
X012731Y037781D03*
X011455Y037781D03*
X011455Y036781D03*
X011455Y035506D03*
X011455Y034506D03*
X011455Y033506D03*
X011455Y032230D03*
X011455Y031230D03*
X011455Y030230D03*
X011455Y028955D03*
X011455Y027955D03*
X011455Y026955D03*
X011455Y025679D03*
X011455Y024679D03*
X011455Y023679D03*
X011455Y022404D03*
X011455Y021404D03*
X011455Y020404D03*
X011455Y019128D03*
X011455Y018128D03*
X011455Y017128D03*
X011455Y015852D03*
X011455Y014852D03*
X011455Y013852D03*
X011455Y012577D03*
X011455Y011577D03*
X011455Y010577D03*
X011455Y009301D03*
X011455Y008301D03*
X011455Y007301D03*
X011455Y006026D03*
X011455Y005026D03*
X011455Y004026D03*
X011455Y002750D03*
X011455Y001750D03*
X011455Y000750D03*
X012731Y001750D03*
X012731Y002750D03*
X012731Y005026D03*
X012731Y006026D03*
X012731Y008301D03*
X012731Y009301D03*
X012731Y011577D03*
X012731Y012577D03*
X012731Y014852D03*
X012731Y015852D03*
X012731Y018128D03*
X012731Y019128D03*
X012731Y021404D03*
X012731Y022404D03*
X012731Y024679D03*
X012731Y025679D03*
X012731Y027955D03*
X012731Y028955D03*
X012731Y031230D03*
X012731Y032230D03*
X012731Y034506D03*
X012731Y035506D03*
X011455Y038781D03*
X007455Y038781D03*
X007455Y037781D03*
X006180Y037781D03*
X006180Y036781D03*
X006180Y035506D03*
X006180Y034506D03*
X006180Y033506D03*
X006180Y032230D03*
X006180Y031230D03*
X006180Y030230D03*
X006180Y028955D03*
X006180Y027955D03*
X006180Y026955D03*
X006180Y025679D03*
X006180Y024679D03*
X006180Y023679D03*
X006180Y022404D03*
X006180Y021404D03*
X006180Y020404D03*
X006180Y019128D03*
X006180Y018128D03*
X006180Y017128D03*
X006180Y015852D03*
X006180Y014852D03*
X006180Y013852D03*
X006180Y012577D03*
X006180Y011577D03*
X006180Y010577D03*
X006180Y009301D03*
X006180Y008301D03*
X006180Y007301D03*
X006180Y006026D03*
X006180Y005026D03*
X006180Y004026D03*
X006180Y002750D03*
X006180Y001750D03*
X006180Y000750D03*
X007455Y001750D03*
X007455Y002750D03*
X007455Y005026D03*
X007455Y006026D03*
X007455Y008301D03*
X007455Y009301D03*
X007455Y011577D03*
X007455Y012577D03*
X007455Y014852D03*
X007455Y015852D03*
X007455Y018128D03*
X007455Y019128D03*
X007455Y021404D03*
X007455Y022404D03*
X007455Y024679D03*
X007455Y025679D03*
X007455Y027955D03*
X007455Y028955D03*
X007455Y031230D03*
X007455Y032230D03*
X007455Y034506D03*
X007455Y035506D03*
X006180Y038781D03*
X002180Y038781D03*
X002180Y037781D03*
X002180Y035506D03*
X002180Y034506D03*
X002180Y032230D03*
X002180Y031230D03*
X002180Y028955D03*
X002180Y027955D03*
X002180Y025679D03*
X002180Y024679D03*
X002180Y022404D03*
X002180Y021404D03*
X002180Y019128D03*
X002180Y018128D03*
X002180Y015852D03*
X002180Y014852D03*
X002180Y012577D03*
X002180Y011577D03*
X002180Y009301D03*
X002180Y008301D03*
X002180Y006026D03*
X002180Y005026D03*
X002180Y002750D03*
X002180Y001750D03*
X016731Y001750D03*
X016731Y002750D03*
X018007Y002750D03*
X018007Y001750D03*
X016731Y000750D03*
X016731Y004026D03*
X016731Y005026D03*
X016731Y006026D03*
X016731Y007301D03*
X016731Y008301D03*
X016731Y009301D03*
X018007Y009301D03*
X018007Y008301D03*
X016731Y010577D03*
X016731Y011577D03*
X016731Y012577D03*
X018007Y012577D03*
X018007Y011577D03*
X016731Y013852D03*
X016731Y014852D03*
X016731Y015852D03*
X018007Y015852D03*
X018007Y014852D03*
X016731Y017128D03*
X016731Y018128D03*
X016731Y019128D03*
X016731Y020404D03*
X016731Y021404D03*
X016731Y022404D03*
X018007Y022404D03*
X018007Y021404D03*
X018007Y019128D03*
X018007Y018128D03*
X018007Y006026D03*
X018007Y005026D03*
M02*
