G75*
%MOIN*%
%OFA0B0*%
%FSLAX24Y24*%
%IPPOS*%
%LPD*%
%AMOC8*
5,1,8,0,0,1.08239X$1,22.5*
%
%ADD10R,0.0740X0.0740*%
%ADD11C,0.0740*%
%ADD12C,0.0320*%
%ADD13C,0.0100*%
D10*
X000650Y000750D03*
D11*
X000650Y001750D03*
X000650Y002750D03*
X004150Y002750D03*
X004150Y001750D03*
X004150Y000750D03*
D12*
X004150Y002750D02*
X000650Y002750D01*
D13*
X000700Y000800D02*
X000700Y000700D01*
X001170Y000700D01*
X001170Y000385D01*
X003780Y000385D01*
X003753Y000411D01*
X003705Y000477D01*
X003668Y000550D01*
X003643Y000628D01*
X003631Y000700D01*
X004100Y000700D01*
X004100Y000800D01*
X003631Y000800D01*
X003643Y000872D01*
X003668Y000950D01*
X003705Y001023D01*
X003753Y001089D01*
X003811Y001147D01*
X003877Y001195D01*
X003950Y001232D01*
X004028Y001257D01*
X004032Y001258D01*
X003867Y001326D01*
X003726Y001467D01*
X003650Y001651D01*
X003650Y001849D01*
X003726Y002033D01*
X003867Y002174D01*
X004051Y002250D01*
X004249Y002250D01*
X004433Y002174D01*
X004515Y002092D01*
X004515Y002408D01*
X004433Y002326D01*
X004249Y002250D01*
X004051Y002250D01*
X003867Y002326D01*
X003733Y002460D01*
X001067Y002460D01*
X000933Y002326D01*
X000749Y002250D01*
X000551Y002250D01*
X000367Y002326D01*
X000285Y002408D01*
X000285Y002092D01*
X000367Y002174D01*
X000551Y002250D01*
X000749Y002250D01*
X000933Y002174D01*
X001074Y002033D01*
X001150Y001849D01*
X001150Y001651D01*
X001074Y001467D01*
X000933Y001326D01*
X000798Y001270D01*
X001040Y001270D01*
X001078Y001260D01*
X001112Y001240D01*
X001140Y001212D01*
X001160Y001178D01*
X001170Y001140D01*
X001170Y000800D01*
X000700Y000800D01*
X000700Y000743D02*
X004100Y000743D01*
X003727Y000447D02*
X001170Y000447D01*
X001170Y000546D02*
X003671Y000546D01*
X003640Y000644D02*
X001170Y000644D01*
X001170Y000841D02*
X003638Y000841D01*
X003665Y000940D02*
X001170Y000940D01*
X001170Y001038D02*
X003716Y001038D01*
X003801Y001137D02*
X001170Y001137D01*
X001117Y001235D02*
X003960Y001235D01*
X003859Y001334D02*
X000941Y001334D01*
X001039Y001432D02*
X003761Y001432D01*
X003700Y001531D02*
X001100Y001531D01*
X001141Y001629D02*
X003659Y001629D01*
X003650Y001728D02*
X001150Y001728D01*
X001150Y001826D02*
X003650Y001826D01*
X003681Y001925D02*
X001119Y001925D01*
X001078Y002023D02*
X003722Y002023D01*
X003814Y002122D02*
X000986Y002122D01*
X000822Y002220D02*
X003978Y002220D01*
X003885Y002319D02*
X000915Y002319D01*
X001024Y002417D02*
X003776Y002417D01*
X004322Y002220D02*
X004515Y002220D01*
X004515Y002122D02*
X004486Y002122D01*
X004515Y002319D02*
X004415Y002319D01*
X000478Y002220D02*
X000285Y002220D01*
X000285Y002122D02*
X000314Y002122D01*
X000285Y002319D02*
X000385Y002319D01*
M02*
