G75*
%MOIN*%
%OFA0B0*%
%FSLAX24Y24*%
%IPPOS*%
%LPD*%
%AMOC8*
5,1,8,0,0,1.08239X$1,22.5*
%
%ADD10R,0.0740X0.0740*%
%ADD11C,0.0740*%
%ADD12C,0.0320*%
%ADD13C,0.0100*%
D10*
X000650Y000750D03*
D11*
X000650Y001750D03*
X000650Y002750D03*
X004650Y002750D03*
X004650Y001750D03*
X004650Y000750D03*
D12*
X004650Y002750D02*
X000650Y002750D01*
D13*
X000700Y000800D02*
X000700Y000700D01*
X001170Y000700D01*
X001170Y000385D01*
X004280Y000385D01*
X004253Y000411D01*
X004205Y000477D01*
X004168Y000550D01*
X004143Y000628D01*
X004131Y000700D01*
X004600Y000700D01*
X004600Y000800D01*
X004131Y000800D01*
X004143Y000872D01*
X004168Y000950D01*
X004205Y001023D01*
X004253Y001089D01*
X004311Y001147D01*
X004377Y001195D01*
X004450Y001232D01*
X004528Y001257D01*
X004532Y001258D01*
X004367Y001326D01*
X004226Y001467D01*
X004150Y001651D01*
X004150Y001849D01*
X004226Y002033D01*
X004367Y002174D01*
X004551Y002250D01*
X004749Y002250D01*
X004933Y002174D01*
X005015Y002092D01*
X005015Y002408D01*
X004933Y002326D01*
X004749Y002250D01*
X004551Y002250D01*
X004367Y002326D01*
X004233Y002460D01*
X001067Y002460D01*
X000933Y002326D01*
X000749Y002250D01*
X000551Y002250D01*
X000367Y002326D01*
X000285Y002408D01*
X000285Y002092D01*
X000367Y002174D01*
X000551Y002250D01*
X000749Y002250D01*
X000933Y002174D01*
X001074Y002033D01*
X001150Y001849D01*
X001150Y001651D01*
X001074Y001467D01*
X000933Y001326D01*
X000798Y001270D01*
X001040Y001270D01*
X001078Y001260D01*
X001112Y001240D01*
X001140Y001212D01*
X001160Y001178D01*
X001170Y001140D01*
X001170Y000800D01*
X000700Y000800D01*
X000700Y000743D02*
X004600Y000743D01*
X004140Y000644D02*
X001170Y000644D01*
X001170Y000546D02*
X004171Y000546D01*
X004227Y000447D02*
X001170Y000447D01*
X001170Y000841D02*
X004138Y000841D01*
X004165Y000940D02*
X001170Y000940D01*
X001170Y001038D02*
X004216Y001038D01*
X004301Y001137D02*
X001170Y001137D01*
X001117Y001235D02*
X004460Y001235D01*
X004359Y001334D02*
X000941Y001334D01*
X001039Y001432D02*
X004261Y001432D01*
X004200Y001531D02*
X001100Y001531D01*
X001141Y001629D02*
X004159Y001629D01*
X004150Y001728D02*
X001150Y001728D01*
X001150Y001826D02*
X004150Y001826D01*
X004181Y001925D02*
X001119Y001925D01*
X001078Y002023D02*
X004222Y002023D01*
X004314Y002122D02*
X000986Y002122D01*
X000822Y002220D02*
X004478Y002220D01*
X004385Y002319D02*
X000915Y002319D01*
X001024Y002417D02*
X004276Y002417D01*
X004822Y002220D02*
X005015Y002220D01*
X005015Y002122D02*
X004986Y002122D01*
X005015Y002319D02*
X004915Y002319D01*
X000478Y002220D02*
X000285Y002220D01*
X000285Y002122D02*
X000314Y002122D01*
X000285Y002319D02*
X000385Y002319D01*
M02*
